<svg height="506pt" viewBox="0 -55 506.57 506" width="506pt" xmlns="http://www.w3.org/2000/svg"><path d="m32.273438 275.621094h-17.613282c-5.523437 0-10-4.476563-10-10v-12.609375c0-5.519531 4.476563-10 10-10h17.613282c5.523437 0 10 4.480469 10 10v12.609375c0 5.523437-4.476563 10-10 10zm0 0" fill="#1c868e"/><path d="m318.765625 189.867188h-279.238281c-5.519532 0-10 4.480468-10 10v86.28125c0 5.523437 4.480468 10 10 10h364.0625c5.539062 0 10-4.480469 10-10v-1.457032c0-52.367187-42.457032-94.824218-94.824219-94.824218zm0 0" fill="#40c4df"/><path d="m413.589844 273.207031v12.941407c0 5.519531-4.460938 10-10 10h-364.0625c-5.519532 0-10-4.480469-10-10v-12.941407c0-5.519531 4.480468-10 10-10h364.0625c5.539062 0 10 4.480469 10 10zm0 0" fill="#1c868e"/><path d="m287.515625 98.941406c-1.359375-2.699218-4.121094-4.398437-7.179687-4.398437h-181.160157c-2.980469 0-5.738281 1.660156-7.121093 4.320312l-47.519532 91h274.222656c5.339844 0 10.597657.441407 15.699219 1.300781zm0 0" fill="#40c4df"/><path d="m177.894531 123.636719v60.734375c0 3.324218-2.695312 6.023437-6.019531 6.023437h-87.15625c-6.957031 0-11.449219-7.40625-8.222656-13.570312l28.308594-54.234375c1.613281-3.0625 4.769531-4.976563 8.242187-4.976563h58.828125c3.324219 0 6.019531 2.695313 6.019531 6.023438zm0 0" fill="#56c1b3"/><path d="m177.894531 123.636719v60.734375c0 3.324218-2.695312 6.023437-6.019531 6.023437h-64.75c-6.960938 0-11.453125-7.40625-8.222656-13.570312l28.304687-54.234375c1.613281-3.0625 4.769531-4.976563 8.242188-4.976563h36.425781c3.324219 0 6.019531 2.695313 6.019531 6.023438zm0 0" fill="#7befe4"/><path d="m293.265625 190.515625h-88.128906c-2.808594 0-5.085938-2.277344-5.085938-5.085937v-63.253907c0-2.8125 2.277344-5.085937 5.085938-5.085937h60.300781c3.519531 0 6.742188 1.964844 8.332031 5.109375l27.847657 54.703125c3.164062 6.234375-1.367188 13.613281-8.351563 13.613281zm0 0" fill="#56c1b3"/><path d="m293.265625 190.515625h-72.464844v-73.425781h44.636719c3.519531 0 6.742188 1.964844 8.332031 5.109375l27.847657 54.703125c3.164062 6.234375-1.367188 13.613281-8.351563 13.613281zm0 0" fill="#7befe4"/><path d="m152.554688 296.351562c0 23.902344-19.375 43.28125-43.277344 43.28125s-43.28125-19.378906-43.28125-43.28125c0-23.898437 19.378906-43.277343 43.28125-43.277343s43.277344 19.378906 43.277344 43.277343zm0 0" fill="#1c868e"/><path d="m130.007812 296.351562c0 11.453126-9.28125 20.734376-20.730468 20.734376-11.453125 0-20.734375-9.28125-20.734375-20.734376 0-11.449218 9.28125-20.730468 20.734375-20.730468 11.449218 0 20.730468 9.28125 20.730468 20.730468zm0 0" fill="#56c1b3"/><path d="m377.121094 296.351562c0 23.902344-19.378906 43.28125-43.277344 43.28125-23.902344 0-43.28125-19.378906-43.28125-43.28125 0-23.898437 19.378906-43.277343 43.28125-43.277343 23.898438 0 43.277344 19.378906 43.277344 43.277343zm0 0" fill="#1c868e"/><path d="m354.574219 296.351562c0 11.453126-9.28125 20.734376-20.730469 20.734376-11.453125 0-20.734375-9.28125-20.734375-20.734376 0-11.449218 9.28125-20.730468 20.734375-20.730468 11.449219 0 20.730469 9.28125 20.730469 20.730468zm0 0" fill="#56c1b3"/><path d="m502.566406 307.488281c0 46.355469-37.578125 83.933594-83.933594 83.933594-46.355468 0-83.933593-37.578125-83.933593-83.933594s37.578125-83.933593 83.933593-83.933593c46.355469 0 83.933594 37.578124 83.933594 83.933593zm0 0" fill="#7befe4"/><path d="m460.382812 332.257812c30.550782-34.828124 8-90.613281-38.28125-92.699218-.992187-.042969-1.988281-.066406-2.988281-.066406-3.035156 0-6.019531.203124-8.941406.605468-43.136719 5.902344-62.074219 57.976563-34.03125 91.28125l34.144531 40.546875c3.941406 4.679688 11.128906 4.753907 15.164063.152344zm0 0" fill="#f85252"/><path d="m451.632812 295.160156c0 18.222656-14.773437 33-33 33-18.222656 0-33-14.777344-33-33 0-18.226562 14.777344-33 33-33 18.226563 0 33 14.773438 33 33zm0 0" fill="#d73735"/><g fill="#491352"><path d="m394.367188 222.964844c-14.71875-18.066406-35.09375-30.386719-57.847657-34.96875l-46.167969-90.746094c-2.074218-4.058594-6.199218-6.582031-10.761718-6.582031h-181.160156c-4.519532 0-8.613282 2.496093-10.667969 6.488281l-46.398438 88.851562h-2.496093c-7.71875 0-14 6.28125-14 14v39.148438h-10.867188c-7.71875 0-14 6.277344-14 14v12.597656c0 7.722656 6.28125 14 14 14h10.867188v6.53125c0 7.722656 6.28125 14 14 14h22.636718c1.945313 24.296875 22.320313 43.480469 47.113282 43.480469 24.785156 0 45.164062-19.179687 47.109374-43.46875h130.347657c2.105469 26.226563 25.582031 46.171875 52.320312 43.140625 14.15625 31.683594 45.3125 51.988281 80.234375 51.988281 48.488282 0 87.941406-39.449219 87.941406-87.9375-.003906-58.34375-56.164062-100.6875-112.203124-84.523437zm-369.507813 48.789062h-10.859375c-3.308594 0-6-2.691406-6-6v-12.597656c0-3.308594 2.691406-6 6-6h10.859375zm70.003906-170.914062c.691407-1.339844 2.054688-2.171875 3.566407-2.171875h181.160156c1.542968 0 2.9375.851562 3.632812 2.214843l43.578125 85.648438c-3.367187-.335938-6.761719-.523438-10.15625-.523438h-8.574219c.171876-6.308593-1.011718-4.441406-31.234374-65.167968-2.425782-4.703125-7.207032-7.625-12.476563-7.625-50.207031 0-121.523437 0-151.300781 0-5.210938 0-9.96875 2.875-12.421875 7.527344l-30.5 58.414062c-1.136719 2.171875-1.648438 4.515625-1.582031 6.847656h-18.167969zm205.214844 85.167968h-96.78125v-64.792968c60.660156 1.171875 63.390625-2.605469 66.414063 3.273437 30.324218 60.410157 30.582031 58.445313 30.367187 61.519531zm-104.78125-64.792968v64.792968h-14.160156v-64.792968zm-22.160156 0v64.792968h-96.546875c-.222656-3.234374-.09375-1.027343 31.128906-61.546874 1.054688-2 3.101562-3.246094 5.339844-3.246094zm-64.519531 214.550781c-21.660157 0-39.277344-17.617187-39.277344-39.277344 0-21.65625 17.617187-39.277343 39.277344-39.277343 21.65625 0 39.277343 17.621093 39.277343 39.277343 0 21.660157-17.621093 39.277344-39.277343 39.277344zm47.078124-43.46875c-2.128906-24.113281-22.425781-43.085937-47.082031-43.085937-24.652343 0-44.945312 18.96875-47.078125 43.074218h-22.667968c-3.308594 0-6-2.691406-6-6v-86.277344c0-3.308593 2.691406-6 6-6h277.78125c27.347656 0 52.359374 11.886719 69.597656 31.71875-14.148438 5.574219-26.507813 14.671876-36.109375 26.625-29.183594-11.277343-61.265625 8.757813-64.027344 39.941407h-130.414063zm182.410157-20.039063c-15.496094-3.152343-29.660157 8.792969-29.660157 24.230469 0 13.179688 10.367188 23.953125 23.371094 24.671875.761719 4.921875 1.921875 9.773438 3.527344 14.511719-22.703125 1.277344-41.4375-16.875-41.4375-39.179687v-.183594c.109375-26.445313 26.089844-45.371094 51.324219-37.207032-2.769531 4.195313-5.136719 8.601563-7.125 13.15625zm-7.214844 40.796876c-8.144531-1.125-14.445313-8.117188-14.445313-16.566407 0-9.859375 8.589844-17.796875 18.703126-16.609375-3.445313 10.394532-4.992188 21.566406-4.257813 33.175782zm87.734375 74.375c-56.464844 0-94.8125-56.824219-74.488281-108.9375 2.582031-6.675782 6.105469-13.023438 10.472656-18.871094 46.109375-61.65625 143.957031-28.289063 143.957031 47.867187 0 44.078125-35.859375 79.941407-79.941406 79.941407zm0 0"/><path d="m473.421875 271.3125c-20.46875-48.027344-89.148437-47.621094-109.53125-.191406-8.910156 20.738281-5.96875 44.789062 9.195313 62.84375l34.140624 40.539062c5.515626 6.550782 15.566407 6.667969 21.226563.222656l34.941406-39.839843c15.410157-17.570313 19.25-41.929688 10.027344-63.574219zm-16.042969 58.296875-34.9375 39.839844c-2.414062 2.75-6.730468 2.714843-9.09375-.097657l-34.140625-40.535156c-13.148437-15.648437-15.722656-36.492187-7.96875-54.539062 17.402344-40.5 76.804688-42.105469 94.820313.167968 8.011718 18.792969 4.683594 39.929688-8.679688 55.164063zm0 0"/><path d="m285.074219 67.617188h.0625c7.734375 0 15.011719 3.019531 20.5 8.503906 5.5 5.5 8.519531 12.804687 8.507812 20.554687-.003906 2.210938 1.785157 4.003907 3.992188 4.007813h.007812c2.207031 0 3.996094-1.785156 4-3.992188.015625-9.894531-3.835937-19.207031-10.851562-26.226562-7-6.996094-16.285157-10.851563-26.15625-10.851563-.023438 0-.042969 0-.070313 0-2.207031.003907-3.996094 1.800781-3.992187 4.007813.003906 2.210937 1.796875 3.996094 4 3.996094zm0 0"/><path d="m285.070312 36.804688c16.011719.015624 31.046876 6.246093 42.34375 17.539062 11.296876 11.296875 17.527344 26.335938 17.542969 42.34375 0 2.210938 1.789063 3.996094 4 3.996094h.003907c2.207031 0 3.996093-1.792969 3.996093-4.003906-.019531-18.144532-7.078125-35.1875-19.882812-47.992188-12.804688-12.800781-29.851563-19.863281-47.992188-19.882812-.003906 0-.003906 0-.003906 0-2.207031 0-4 1.789062-4 3.996093-.003906 2.210938 1.785156 4.003907 3.992187 4.003907zm0 0"/><path d="m285.074219 8.285156c23.609375 0 45.804687 9.199219 62.503906 25.894532 16.703125 16.703124 25.898437 38.898437 25.898437 62.503906 0 2.210937 1.792969 4 4 4 2.207032 0 4-1.789063 4-4 0-25.742188-10.03125-49.949219-28.242187-68.160156-18.207031-18.207032-42.417969-28.238282-68.160156-28.238282-2.207031 0-4 1.792969-4 4 0 2.207032 1.792969 4 4 4zm0 0"/><path d="m108.617188 271.753906c-13.640626 0-24.734376 11.097656-24.734376 24.734375 0 13.640625 11.09375 24.734375 24.734376 24.734375 13.636718 0 24.730468-11.09375 24.730468-24.734375 0-13.636719-11.09375-24.734375-24.730468-24.734375zm0 41.46875c-9.226563 0-16.734376-7.507812-16.734376-16.734375 0-9.226562 7.507813-16.734375 16.734376-16.734375 9.226562 0 16.730468 7.507813 16.730468 16.734375 0 9.230469-7.503906 16.734375-16.730468 16.734375zm0 0"/><path d="m101.367188 185.109375c4.5625 0 2.902343-2.6875 29.859374-52.136719 1.03125-1.957031.28125-4.375-1.675781-5.402344-1.957031-1.03125-4.375-.28125-5.402343 1.675782l-26.3125 50c-1.410157 2.675781.550781 5.863281 3.53125 5.863281zm0 0"/><path d="m131.945312 184.652344c1.980469 1.035156 4.382813.253906 5.402344-1.675782l26.308594-50c2.46875-4.691406-4.621094-8.410156-7.078125-3.726562l-26.308594 50c-1.03125 1.953125-.28125 4.371094 1.675781 5.402344zm0 0"/><path d="m237.472656 127.570312c-1.957031-1.03125-4.375-.277343-5.402344 1.675782l-26.3125 50c-2.484374 4.71875 4.628907 8.390625 7.078126 3.726562l26.3125-50c1.03125-1.953125.28125-4.375-1.675782-5.402344zm0 0"/><path d="m264.503906 129.246094-26.3125 50c-1.03125 1.957031-.28125 4.375 1.675782 5.40625.597656.3125 1.234374.457031 1.859374.457031 1.4375 0 2.828126-.777344 3.542969-2.136719l26.3125-50c2.46875-4.6875-4.621093-8.40625-7.078125-3.726562zm0 0"/><path d="m418.625 258.167969c-20.59375 0-37 16.742187-37 37 0 .453125.003906.878906.023438 1.257812.679687 20.042969 16.921874 35.742188 36.976562 35.742188 20.402344 0 37-16.597657 37-37 0-20.402344-16.59375-37-37-37zm0 66c-15.71875 0-28.449219-12.304688-28.984375-28.082031-.015625-.3125-.015625-.605469-.015625-.917969 0-15.898438 12.863281-29 29-29 15.992188 0 29 13.011719 29 29 0 15.992187-13.007812 29-29 29zm0 0"/><path d="m225.28125 210.5625h-21.332031c-2.210938 0-4 1.789062-4 4 0 2.207031 1.789062 4 4 4h21.332031c2.207031 0 4-1.792969 4-4 0-2.210938-1.792969-4-4-4zm0 0"/><path d="m95.949219 210.5625h-21.335938c-2.207031 0-4 1.789062-4 4 0 2.207031 1.792969 4 4 4h21.335938c2.207031 0 4-1.792969 4-4 0-2.210938-1.792969-4-4-4zm0 0"/></g></svg>